<svg width="25" height="25" viewBox="0 0 25 25" fill="none" xmlns="http://www.w3.org/2000/svg">
<path d="M24.0862 15.3664L21.5499 13.0924V10.0802C21.547 7.99847 20.6832 5.99169 19.1256 4.44785C17.5681 2.90402 15.4273 1.93281 13.1173 1.72203V0H11.2434V1.72203C8.93343 1.93281 6.79268 2.90402 5.23509 4.44785C3.67751 5.99169 2.81376 7.99847 2.81085 10.0802V13.0924L0.274527 15.3664C0.0988021 15.5239 5.30665e-05 15.7375 0 15.9602V18.4803C0 18.7031 0.0987142 18.9167 0.274427 19.0743C0.450139 19.2318 0.688457 19.3203 0.936952 19.3203H7.49561V19.973C7.47523 21.0387 7.8942 22.0736 8.67222 22.8795C9.45025 23.6854 10.5326 24.2055 11.7119 24.3402C12.3632 24.3981 13.0209 24.3332 13.6426 24.1495C14.2642 23.9659 14.8361 23.6676 15.3215 23.2739C15.8069 22.8802 16.195 22.3998 16.4608 21.8636C16.7267 21.3273 16.8644 20.7471 16.8651 20.1603V19.3203H23.4238C23.6723 19.3203 23.9106 19.2318 24.0863 19.0743C24.262 18.9167 24.3607 18.7031 24.3607 18.4803V15.9602C24.3607 15.7375 24.2619 15.5239 24.0862 15.3664ZM14.9912 20.1603C14.9912 20.8287 14.6951 21.4697 14.1679 21.9423C13.6408 22.4149 12.9259 22.6804 12.1804 22.6804C11.4349 22.6804 10.7199 22.4149 10.1928 21.9423C9.66566 21.4697 9.36952 20.8287 9.36952 20.1603V19.3203H14.9912V20.1603ZM22.4868 17.6403H1.8739V16.308L4.41023 14.0341C4.58596 13.8766 4.68471 13.663 4.68476 13.4402V10.0802C4.68476 8.29787 5.47447 6.58859 6.88017 5.32833C8.28587 4.06806 10.1924 3.36005 12.1804 3.36005C14.1683 3.36005 16.0749 4.06806 17.4806 5.32833C18.8863 6.58859 19.676 8.29787 19.676 10.0802V13.4402C19.676 13.663 19.7748 13.8766 19.9505 14.0341L22.4868 16.308V17.6403Z" fill="white" fill-opacity="0.82"/>
</svg>
