<svg width="32" height="31" viewBox="0 0 32 31" fill="none" xmlns="http://www.w3.org/2000/svg">
<path d="M15.9941 0C7.43454 0 0.494141 6.9404 0.494141 15.5C0.494141 24.0596 7.43454 31 15.9941 31C24.5537 31 31.4941 24.0596 31.4941 15.5C31.4941 6.9404 24.5537 0 15.9941 0ZM15.9941 28.3705C8.88767 28.3705 3.1236 22.6065 3.1236 15.5C3.1236 8.39353 8.88767 2.62946 15.9941 2.62946C23.1006 2.62946 28.8647 8.39353 28.8647 15.5C28.8647 22.6065 23.1006 28.3705 15.9941 28.3705ZM22.8584 8.02332C22.7229 7.97038 22.5783 7.94465 22.4329 7.94762C22.2874 7.95059 22.144 7.98219 22.0108 8.04062L12.6347 12.144L8.53477 21.5201C8.41021 21.8038 8.41021 22.1256 8.53477 22.4093C8.6524 22.6791 8.87037 22.8902 9.14715 22.9974C9.27863 23.0493 9.41356 23.0735 9.55195 23.0735C9.70418 23.0735 9.85296 23.0424 9.99481 22.9801L19.3709 18.8768L23.4708 9.50067C23.5306 9.36383 23.5622 9.21633 23.5636 9.067C23.5651 8.91766 23.5363 8.76958 23.4791 8.63162C23.422 8.49367 23.3375 8.36868 23.2308 8.26415C23.1242 8.15963 22.9975 8.07771 22.8584 8.02332ZM18.2361 16.275L19.1426 17.1815L17.6756 18.6484L16.7691 17.742L11.4272 20.0808L13.7626 14.7388L12.8803 13.8531L14.3473 12.3862L15.2295 13.2684L20.5749 10.933L18.2361 16.275ZM14.3473 12.3862L12.8803 13.8531L13.7626 14.7388L16.7691 17.742L17.6756 18.6484L19.1426 17.1815L18.2361 16.275L15.233 13.2684L14.3473 12.3862Z" fill="white" fill-opacity="0.82"/>
</svg>
