<svg width="25" height="25" viewBox="0 0 25 25" fill="none" xmlns="http://www.w3.org/2000/svg">
<path d="M22.2656 10.2344C22.2656 10.2344 21.0938 11.3281 19.1016 12.6172C18.5547 9.45312 17.0312 5.54688 14.0625 0.78125C14.0625 0.78125 13.0859 5.89844 9.84375 10.7031C8.4375 8.51562 7.8125 6.79688 7.8125 6.79688C-2.34375 16.9922 6.09375 24.2188 11.4062 24.2188C18.2031 24.2188 24.1797 20.9375 22.2656 10.2344Z" fill="#FF9D33"/>
<path d="M18.2422 19.2969C18.8281 18.0078 19.2578 16.3281 19.3359 14.2188C19.3359 14.2188 18.5156 14.9219 17.1094 15.8203C16.7187 13.7109 15.6641 11.1328 13.5937 7.92969C13.5937 7.92969 12.9297 11.3281 10.6641 14.5703C9.6875 13.125 9.25781 11.9531 9.25781 11.9531C7.57813 14.6094 6.91406 16.7188 6.875 18.3984C5.9375 18.0469 5.35156 17.7734 5.35156 17.7734C6.95312 22.5391 10.2734 23.5938 11.7578 23.5938C14.4141 23.5938 17.1094 22.8125 19.7656 19.0234C19.7656 18.9844 19.1797 19.1406 18.2422 19.2969Z" fill="#FFCE31"/>
<path d="M8.55468 17.1484C8.55468 17.1484 9.64843 18.6328 10.4687 18.2812C10.4687 18.2812 12.0312 15.8203 14.2969 14.4531C14.2969 14.4531 13.8281 18.2031 14.375 18.8672C15.0781 19.7656 16.9922 17.8906 16.9922 17.8906C16.9922 20.1172 14.5703 22.8906 12.3828 22.8906C10.2734 22.8906 7.22656 20.4688 8.55468 17.1484Z" fill="#FFDF85"/>
<path d="M19.4531 7.07031C20.2734 5.89844 20.8203 4.64844 20.8203 4.64844C22.1875 6.91406 21.3672 8.28125 20.7812 8.71094C19.9609 9.33594 18.5156 8.4375 19.4531 7.07031ZM4.53125 6.67969C3.71094 5.3125 3.63281 3.59375 3.63281 3.59375C1.67969 6.52344 2.42187 8.16406 3.08594 8.63281C3.94531 9.29688 5.42969 8.28125 4.53125 6.67969ZM9.0625 3.63281C9.17969 2.69531 8.78906 1.75781 8.78906 1.75781C10.625 2.96875 10.625 3.98438 10.3906 4.41406C10.0391 4.92188 8.94531 4.6875 9.0625 3.63281Z" fill="#FF9D33"/>
</svg>
