<svg width="41" height="41" viewBox="0 0 41 41" fill="none" xmlns="http://www.w3.org/2000/svg">
<g filter="url(#filter0_d_1037_580)">
<path d="M35.3584 19.246L21.2735 4.3395C21.172 4.23188 21.0516 4.1465 20.919 4.08824C20.7864 4.02999 20.6442 4 20.5006 4C20.3571 4 20.2149 4.02999 20.0823 4.08824C19.9497 4.1465 19.8292 4.23188 19.7278 4.3395L5.64287 19.246C5.23253 19.6806 5 20.2709 5 20.8866C5 22.165 5.9814 23.2044 7.18849 23.2044H8.67255V33.8411C8.67255 34.4821 9.16154 35 9.7668 35H18.3122V26.8876H22.142V35H31.2345C31.8397 35 32.3287 34.4821 32.3287 33.8411V23.2044H33.8128C34.3941 23.2044 34.9515 22.9618 35.3618 22.5236C36.2133 21.6182 36.2133 20.1514 35.3584 19.246Z" fill="white" fill-opacity="0.82" shape-rendering="crispEdges"/>
</g>
<defs>
<filter id="filter0_d_1037_580" x="0" y="0" width="41" height="41" filterUnits="userSpaceOnUse" color-interpolation-filters="sRGB">
<feFlood flood-opacity="0" result="BackgroundImageFix"/>
<feColorMatrix in="SourceAlpha" type="matrix" values="0 0 0 0 0 0 0 0 0 0 0 0 0 0 0 0 0 0 127 0" result="hardAlpha"/>
<feOffset dy="1"/>
<feGaussianBlur stdDeviation="2.5"/>
<feComposite in2="hardAlpha" operator="out"/>
<feColorMatrix type="matrix" values="0 0 0 0 0.9625 0 0 0 0 0.9625 0 0 0 0 0.9625 0 0 0 0.25 0"/>
<feBlend mode="normal" in2="BackgroundImageFix" result="effect1_dropShadow_1037_580"/>
<feBlend mode="normal" in="SourceGraphic" in2="effect1_dropShadow_1037_580" result="shape"/>
</filter>
</defs>
</svg>
