<svg width="22" height="19" viewBox="0 0 22 19" fill="none" xmlns="http://www.w3.org/2000/svg">
<path d="M11.0024 16.808C12.0159 15.8691 12.6746 14.6094 12.8675 13.2413C13.0604 11.8733 12.7757 10.4806 12.0613 9.29802L13.913 7.58721L15.5407 9.34897L17.3025 7.72118L15.6747 5.95942L17.4365 4.33163L19.8782 6.97426L21.6399 5.34647L19.1982 2.70384L20.0791 1.88994L18.4513 0.128186L10.4336 7.53627C9.31106 6.73083 7.94516 6.33708 6.56616 6.42141C5.18716 6.50574 3.87942 7.063 2.86343 7.99922C0.434854 10.2431 0.284614 14.0445 2.52852 16.4731C4.77243 18.9017 8.57381 19.0519 11.0024 16.808ZM4.49123 9.76097C5.9482 8.41479 8.22936 8.50495 9.57555 9.96192C10.9217 11.4189 10.8316 13.7001 9.3746 15.0462C7.91763 16.3924 5.63646 16.3023 4.29028 14.8453C2.9441 13.3883 3.03425 11.1072 4.49123 9.76097Z" fill="#AAB7C6"/>
</svg>
