<svg width="21" height="17" viewBox="0 0 21 17" fill="none" xmlns="http://www.w3.org/2000/svg">
<path d="M20.25 0H0.75C0.335156 0 0 0.345312 0 0.772727V16.2273C0 16.6547 0.335156 17 0.75 17H20.25C20.6648 17 21 16.6547 21 16.2273V0.772727C21 0.345312 20.6648 0 20.25 0ZM19.3125 2.67557V15.2614H1.6875V2.67557L1.04063 2.15639L1.96172 0.936932L2.96484 1.74105H18.0375L19.0406 0.936932L19.9617 2.15639L19.3125 2.67557ZM18.0375 1.73864L10.5 7.77557L2.9625 1.73864L1.95938 0.934517L1.03828 2.15398L1.68516 2.67315L9.69141 9.08679C9.92165 9.27109 10.2049 9.37113 10.4965 9.37113C10.7881 9.37113 11.0713 9.27109 11.3016 9.08679L19.3125 2.67557L19.9594 2.15639L19.0383 0.936932L18.0375 1.73864Z" fill="#AAB7C6"/>
</svg>
