<svg width="25" height="25" viewBox="0 0 25 25" fill="none" xmlns="http://www.w3.org/2000/svg">
<path fill-rule="evenodd" clip-rule="evenodd" d="M17.0098 9.14321C17.0098 10.3354 16.5362 11.4787 15.6932 12.3217C14.8502 13.1648 13.7069 13.6383 12.5147 13.6383C11.3225 13.6383 10.1791 13.1648 9.33613 12.3217C8.49312 11.4787 8.01953 10.3354 8.01953 9.14321C8.01953 7.95102 8.49312 6.80767 9.33613 5.96467C10.1791 5.12166 11.3225 4.64807 12.5147 4.64807C13.7069 4.64807 14.8502 5.12166 15.6932 5.96467C16.5362 6.80767 17.0098 7.95102 17.0098 9.14321ZM14.7622 9.14321C14.7622 9.7393 14.5254 10.311 14.1039 10.7325C13.6824 11.154 13.1108 11.3908 12.5147 11.3908C11.9186 11.3908 11.3469 11.154 10.9254 10.7325C10.5039 10.311 10.2671 9.7393 10.2671 9.14321C10.2671 8.54712 10.5039 7.97544 10.9254 7.55394C11.3469 7.13244 11.9186 6.89564 12.5147 6.89564C13.1108 6.89564 13.6824 7.13244 14.1039 7.55394C14.5254 7.97544 14.7622 8.54712 14.7622 9.14321Z" fill="white" fill-opacity="0.82"/>
<path fill-rule="evenodd" clip-rule="evenodd" d="M12.5147 0.152954C5.68771 0.152954 0.153076 5.68759 0.153076 12.5146C0.153076 19.3416 5.68771 24.8762 12.5147 24.8762C19.3417 24.8762 24.8763 19.3416 24.8763 12.5146C24.8763 5.68759 19.3417 0.152954 12.5147 0.152954ZM2.40064 12.5146C2.40064 14.8633 3.2019 17.0254 4.54482 18.7426C5.48794 17.5041 6.70463 16.5004 8.09984 15.8099C9.49506 15.1194 11.031 14.7608 12.5877 14.7621C14.1243 14.7607 15.641 15.11 17.0221 15.7834C18.4033 16.4569 19.6125 17.4367 20.5576 18.6482C21.5313 17.3711 22.1869 15.8806 22.4702 14.2998C22.7534 12.7191 22.6562 11.0936 22.1865 9.55789C21.7169 8.02218 20.8883 6.62039 19.7693 5.46849C18.6503 4.3166 17.2731 3.44773 15.7516 2.93377C14.2302 2.4198 12.6082 2.27553 11.0199 2.51287C9.43162 2.75022 7.92269 3.36236 6.61795 4.29865C5.31321 5.23495 4.25018 6.46848 3.51682 7.89717C2.78346 9.32587 2.40085 10.9087 2.40064 12.5146ZM12.5147 22.6286C10.1929 22.6321 7.9412 21.8334 6.1406 20.3676C6.86536 19.33 7.83003 18.4829 8.95252 17.8983C10.075 17.3136 11.3221 17.0088 12.5877 17.0097C13.8376 17.0087 15.0696 17.3059 16.1815 17.8766C17.2934 18.4473 18.2532 19.2751 18.981 20.2912C17.1664 21.8046 14.8776 22.632 12.5147 22.6286Z" fill="white" fill-opacity="0.82"/>
</svg>
