<svg width="23" height="23" viewBox="0 0 23 23" fill="none" xmlns="http://www.w3.org/2000/svg">
<path fill-rule="evenodd" clip-rule="evenodd" d="M11.18 0.0150146C5.01389 0.0150146 0.0150146 5.01389 0.0150146 11.18C0.0150146 17.3461 5.01389 22.345 11.18 22.345C17.3461 22.345 22.345 17.3461 22.345 11.18C22.345 5.01389 17.3461 0.0150146 11.18 0.0150146ZM2.04501 11.18C2.04501 13.3014 2.76871 15.2542 3.98163 16.8051C4.83345 15.6865 5.93236 14.78 7.19252 14.1563C8.45267 13.5327 9.83995 13.2088 11.246 13.21C12.6338 13.2087 14.0037 13.5242 15.2511 14.1324C16.4986 14.7407 17.5907 15.6256 18.4444 16.7199C19.3238 15.5664 19.916 14.2202 20.1718 12.7924C20.4276 11.3647 20.3398 9.89658 19.9156 8.50953C19.4914 7.12248 18.743 5.85639 17.7323 4.816C16.7217 3.77562 15.4778 2.99085 14.1036 2.52664C12.7294 2.06243 11.2645 1.93212 9.82992 2.14649C8.39538 2.36086 7.03251 2.91374 5.85407 3.7594C4.67564 4.60506 3.71551 5.71918 3.05314 7.00958C2.39077 8.29997 2.0452 9.72955 2.04501 11.18ZM11.18 20.315C9.08297 20.3182 7.04923 19.5967 5.42293 18.2728C6.07754 17.3357 6.94882 16.5706 7.96266 16.0426C8.9765 15.5145 10.1029 15.2392 11.246 15.24C12.3748 15.2391 13.4876 15.5075 14.4919 16.023C15.4962 16.5385 16.363 17.2861 17.0203 18.2038C15.3814 19.5707 13.3141 20.318 11.18 20.315Z" fill="white" fill-opacity="0.82"/>
</svg>
