<svg width="19" height="15" viewBox="0 0 19 15" fill="none" xmlns="http://www.w3.org/2000/svg">
<path d="M4.27101 0.792023C4.19423 0.713687 4.10277 0.651248 4.00186 0.608272C3.90094 0.565296 3.79254 0.542627 3.68286 0.541559C3.57318 0.540491 3.46437 0.561045 3.36263 0.602048C3.2609 0.64305 3.16824 0.703698 3.08996 0.780523C2.2044 1.66094 1.50194 2.70799 1.0231 3.86127C0.544256 5.01455 0.298517 6.25124 0.300056 7.49997C0.29862 8.79662 0.563698 10.0797 1.07884 11.2697C1.59398 12.4596 2.34819 13.5309 3.29466 14.4172C3.45395 14.5645 3.66437 14.6438 3.88124 14.6385C4.0981 14.6331 4.30434 14.5434 4.45616 14.3885C4.81956 14.0251 4.77471 13.4466 4.42511 13.112C3.66553 12.3881 3.06108 11.5173 2.64849 10.5526C2.2359 9.58781 2.02379 8.54924 2.02506 7.49997C2.02506 5.37707 2.87721 3.45197 4.25951 2.05127C4.59301 1.71202 4.62751 1.14852 4.27101 0.792023ZM6.29616 2.81947C6.1447 2.66363 5.93764 2.57419 5.72036 2.57074C5.50307 2.56729 5.29328 2.65012 5.13696 2.80107C4.51475 3.41512 4.02087 4.14678 3.68405 4.95347C3.34724 5.76017 3.17422 6.62579 3.17506 7.49997C3.17371 8.42429 3.36683 9.33855 3.74188 10.1834C4.11693 11.0282 4.66552 11.7846 5.35201 12.4036C5.50984 12.543 5.71528 12.6164 5.92574 12.6085C6.13621 12.6005 6.33555 12.5119 6.48246 12.361C6.85966 11.9838 6.78951 11.3904 6.43531 11.0569C5.94979 10.6005 5.56304 10.0494 5.29897 9.43759C5.03491 8.82579 4.89914 8.16633 4.90006 7.49997C4.90006 6.17747 5.42561 4.97687 6.28006 4.09597C6.60896 3.75787 6.66301 3.18402 6.29616 2.81832V2.81947ZM12.704 2.81947C12.8554 2.66363 13.0625 2.57419 13.2798 2.57074C13.497 2.56729 13.7068 2.65012 13.8632 2.80107C14.4854 3.41512 14.9792 4.14678 15.3161 4.95347C15.6529 5.76017 15.8259 6.62579 15.8251 7.49997C15.8264 8.42429 15.6333 9.33855 15.2582 10.1834C14.8832 11.0282 14.3346 11.7846 13.6481 12.4036C13.4903 12.543 13.2848 12.6164 13.0744 12.6085C12.8639 12.6005 12.6646 12.5119 12.5177 12.361C12.1405 11.9838 12.2106 11.3904 12.5648 11.0569C13.0503 10.6005 13.4371 10.0494 13.7011 9.43759C13.9652 8.82579 14.101 8.16633 14.1001 7.49997C14.1001 6.17747 13.5745 4.97687 12.7201 4.09597C12.3912 3.75787 12.3371 3.18402 12.704 2.81832V2.81947ZM14.7291 0.793174C14.8059 0.714838 14.8973 0.652398 14.9983 0.609422C15.0992 0.566446 15.2076 0.543777 15.3172 0.542709C15.4269 0.541641 15.5357 0.562195 15.6375 0.603198C15.7392 0.6442 15.8319 0.704848 15.9102 0.781673C16.7956 1.66195 17.498 2.70882 17.9768 3.86189C18.4556 5.01497 18.7014 6.25143 18.7001 7.49997C18.7015 8.79662 18.4364 10.0797 17.9213 11.2697C17.4061 12.4596 16.6519 13.5309 15.7055 14.4172C15.5462 14.5645 15.3357 14.6438 15.1189 14.6385C14.902 14.6331 14.6958 14.5434 14.544 14.3885C14.1806 14.0251 14.2254 13.4466 14.5762 13.112C15.3355 12.388 15.9398 11.5172 16.3521 10.5524C16.7645 9.58768 16.9765 8.54916 16.9751 7.49997C16.9751 5.37707 16.1229 3.45197 14.7406 2.05127C14.4071 1.71202 14.3726 1.14852 14.7291 0.792023V0.793174ZM9.50006 5.77497C9.04256 5.77497 8.6038 5.95671 8.2803 6.28021C7.9568 6.60371 7.77506 7.04247 7.77506 7.49997C7.77506 7.95747 7.9568 8.39623 8.2803 8.71973C8.6038 9.04323 9.04256 9.22497 9.50006 9.22497C9.95755 9.22497 10.3963 9.04323 10.7198 8.71973C11.0433 8.39623 11.2251 7.95747 11.2251 7.49997C11.2251 7.04247 11.0433 6.60371 10.7198 6.28021C10.3963 5.95671 9.95755 5.77497 9.50006 5.77497Z" fill="#2BE6FF"/>
</svg>
