<svg width="26" height="26" viewBox="0 0 26 26" fill="none" xmlns="http://www.w3.org/2000/svg">
<path d="M22.3438 2.84375H3.65625C3.20684 2.84375 2.84375 3.20684 2.84375 3.65625V22.3438C2.84375 22.7932 3.20684 23.1562 3.65625 23.1562H22.3438C22.7932 23.1562 23.1562 22.7932 23.1562 22.3438V3.65625C23.1562 3.20684 22.7932 2.84375 22.3438 2.84375ZM21.3281 14.625H13.4062V11.375H21.3281V14.625ZM21.3281 21.3281H4.67188V4.67188H21.3281V9.75H12.5938C12.1443 9.75 11.7812 10.1131 11.7812 10.5625V15.4375C11.7812 15.8869 12.1443 16.25 12.5938 16.25H21.3281V21.3281ZM14.7266 13C14.7266 13.2694 14.8336 13.5277 15.024 13.7182C15.2145 13.9086 15.4728 14.0156 15.7422 14.0156C16.0115 14.0156 16.2699 13.9086 16.4603 13.7182C16.6508 13.5277 16.7578 13.2694 16.7578 13C16.7578 12.7306 16.6508 12.4723 16.4603 12.2818C16.2699 12.0914 16.0115 11.9844 15.7422 11.9844C15.4728 11.9844 15.2145 12.0914 15.024 12.2818C14.8336 12.4723 14.7266 12.7306 14.7266 13Z" fill="#3FB4EC"/>
</svg>
