<svg width="30" height="22" viewBox="0 0 30 22" fill="none" xmlns="http://www.w3.org/2000/svg">
<path d="M27.1741 4H3.97414C3.66649 4 3.37144 3.89464 3.1539 3.70711C2.93635 3.51957 2.81414 3.26522 2.81414 3C2.81414 2.73478 2.93635 2.48043 3.1539 2.29289C3.37144 2.10536 3.66649 2 3.97414 2H23.6941C24.0018 2 24.2968 1.89464 24.5144 1.70711C24.7319 1.51957 24.8541 1.26522 24.8541 1C24.8541 0.734784 24.7319 0.48043 24.5144 0.292893C24.2968 0.105357 24.0018 0 23.6941 0H3.97414C3.05236 0.00329046 2.16943 0.320418 1.51763 0.882315C0.865825 1.44421 0.497958 2.20536 0.494141 3V19C0.497958 19.7946 0.865825 20.5558 1.51763 21.1177C2.16943 21.6796 3.05236 21.9967 3.97414 22H27.1741C27.7894 22 28.3795 21.7893 28.8146 21.4142C29.2497 21.0391 29.4941 20.5304 29.4941 20V6C29.4941 5.46957 29.2497 4.96086 28.8146 4.58579C28.3795 4.21071 27.7894 4 27.1741 4ZM27.1741 20H3.97414C3.66649 20 3.37144 19.8946 3.1539 19.7071C2.93635 19.5196 2.81414 19.2652 2.81414 19V5.825C3.18617 5.94068 3.57865 5.99989 3.97414 6H27.1741V20ZM20.2141 13C20.2141 12.7033 20.3162 12.4133 20.5074 12.1666C20.6986 11.92 20.9703 11.7277 21.2883 11.6142C21.6062 11.5007 21.9561 11.4709 22.2936 11.5288C22.6311 11.5867 22.9412 11.7296 23.1845 11.9393C23.4278 12.1491 23.5936 12.4164 23.6607 12.7074C23.7278 12.9983 23.6934 13.2999 23.5617 13.574C23.43 13.8481 23.207 14.0824 22.9208 14.2472C22.6347 14.412 22.2983 14.5 21.9541 14.5C21.4927 14.5 21.0501 14.342 20.7238 14.0607C20.3975 13.7794 20.2141 13.3978 20.2141 13Z" fill="white"/>
</svg>
